<svg width="49" height="49" viewBox="0 0 49 49" fill="none" xmlns="http://www.w3.org/2000/svg">
<path d="M34.7084 36.6667C35.7913 36.6667 36.8299 37.0969 37.5957 37.8626C38.3615 38.6284 38.7917 39.667 38.7917 40.75C38.7917 41.833 38.3615 42.8716 37.5957 43.6373C36.8299 44.4031 35.7913 44.8333 34.7084 44.8333C33.6254 44.8333 32.5868 44.4031 31.821 43.6373C31.0552 42.8716 30.625 41.833 30.625 40.75C30.625 38.4837 32.4421 36.6667 34.7084 36.6667ZM2.04169 4H8.71794L10.6371 8.08333H40.8334C41.3748 8.08333 41.8941 8.29844 42.277 8.68132C42.6599 9.06421 42.875 9.58352 42.875 10.125C42.875 10.4721 42.7729 10.8192 42.63 11.1458L35.3208 24.3554C34.6267 25.6008 33.2792 26.4583 31.7479 26.4583H16.5375L14.7 29.7862L14.6388 30.0312C14.6388 30.1666 14.6925 30.2964 14.7883 30.3922C14.884 30.4879 15.0138 30.5417 15.1492 30.5417H38.7917V34.625H14.2917C13.2087 34.625 12.1701 34.1948 11.4043 33.429C10.6386 32.6632 10.2084 31.6246 10.2084 30.5417C10.2084 29.8271 10.3921 29.1533 10.6984 28.5817L13.475 23.5796L6.12502 8.08333H2.04169V4ZM14.2917 36.6667C15.3747 36.6667 16.4133 37.0969 17.179 37.8626C17.9448 38.6284 18.375 39.667 18.375 40.75C18.375 41.833 17.9448 42.8716 17.179 43.6373C16.4133 44.4031 15.3747 44.8333 14.2917 44.8333C13.2087 44.8333 12.1701 44.4031 11.4043 43.6373C10.6386 42.8716 10.2084 41.833 10.2084 40.75C10.2084 38.4837 12.0254 36.6667 14.2917 36.6667ZM32.6667 22.375L38.3425 12.1667H12.5359L17.3542 22.375H32.6667Z" fill="#2B2B2B"/>
</svg>
