<?xml version="1.0" encoding="utf-8"?>
<!-- Generator: Adobe Illustrator 23.0.3, SVG Export Plug-In . SVG Version: 6.00 Build 0)  -->
<svg version="1.1" id="Layer_1" xmlns="http://www.w3.org/2000/svg" xmlns:xlink="http://www.w3.org/1999/xlink" x="0px" y="0px"
	 viewBox="0 0 792.4 318.5" style="enable-background:new 0 0 792.4 318.5;" xml:space="preserve">
<style type="text/css">
	.st0{fill:#FF9F1C;}
	.st1{fill:#4A6D00;}
	.st2{fill:none;}
	.st3{fill:#1E1E1E;}
</style>
<g>
	<g>
		<path class="st0" d="M225.3,17.9l-76.4,153.8L68.5,19.9C92.5,7.2,119.8,0,148.9,0C176.3,0,202.3,6.4,225.3,17.9z"/>
		<path class="st1" d="M293.7,171.7c0,81.1-65.7,146.8-146.8,146.8S0.1,252.8,0.1,171.7H293.7z"/>
	</g>
	<g>
		<rect x="334.3" y="117.4" class="st2" width="463.4" height="83.6"/>
		<path class="st1" d="M356.7,191.6h-13v-70h13V191.6z M393.9,161.6h-38.3v-11.1h38.3V161.6z M392.9,121.6h13v70h-13V121.6z"/>
		<path class="st3" d="M448.6,192.3c-5.9,0-11.1-1.2-15.5-3.6c-4.4-2.4-7.9-5.6-10.3-9.8c-2.4-4.1-3.7-8.8-3.7-14.1
			c0-5.3,1.2-10.1,3.6-14.2c2.4-4.1,5.6-7.3,9.8-9.6c4.2-2.3,8.9-3.5,14.3-3.5c5.2,0,9.8,1.1,13.9,3.4c4.1,2.3,7.3,5.5,9.6,9.6
			c2.3,4.1,3.5,9,3.5,14.6c0,0.5,0,1.1-0.1,1.8c0,0.7-0.1,1.3-0.1,1.9H429v-8.3h37.9l-4.9,2.6c0.1-3.1-0.6-5.8-1.9-8.1
			c-1.3-2.3-3.1-4.2-5.5-5.5c-2.3-1.3-4.9-2-7.9-2c-3.1,0-5.8,0.7-8.1,2c-2.3,1.3-4.1,3.2-5.4,5.5c-1.3,2.4-2,5.2-2,8.4v2
			c0,3.2,0.7,6,2.2,8.5c1.5,2.5,3.5,4.4,6.2,5.7c2.7,1.3,5.7,2,9.2,2c3,0,5.7-0.5,8.1-1.4c2.4-0.9,4.5-2.4,6.4-4.4l6.7,7.7
			c-2.4,2.8-5.4,5-9,6.5C457.4,191.6,453.3,192.3,448.6,192.3z"/>
		<path class="st3" d="M476.9,191.6l23.5-30.6l-0.2,6.7l-22.4-29.5h13.9l15.7,21h-5.3l15.8-21h13.5l-22.6,29.5l0.1-6.7l23.4,30.6
			h-14.1l-16.5-22.3l5.2,0.7l-16.2,21.6H476.9z"/>
		<path class="st0" d="M555.7,191.6h-13v-70h51.1v10.9h-38.1V191.6z M554.6,153.8h34.9v11h-34.9V153.8z"/>
		<path class="st3" d="M627.7,192.3c-5.5,0-10.3-1.2-14.6-3.6c-4.3-2.4-7.6-5.6-10.1-9.8c-2.5-4.1-3.7-8.8-3.7-14.1
			c0-5.3,1.2-10.1,3.7-14.2c2.5-4.1,5.8-7.3,10.1-9.6c4.3-2.3,9.1-3.5,14.6-3.5c5.5,0,10.5,1.2,14.8,3.5c4.3,2.3,7.7,5.5,10.1,9.6
			c2.4,4.1,3.7,8.8,3.7,14.2c0,5.3-1.2,10-3.7,14.1c-2.4,4.1-5.8,7.4-10.1,9.8C638.2,191.1,633.2,192.3,627.7,192.3z M627.7,181.6
			c3.1,0,5.8-0.7,8.2-2c2.4-1.3,4.3-3.3,5.6-5.8c1.4-2.5,2-5.5,2-8.9c0-3.5-0.7-6.5-2-9c-1.4-2.5-3.3-4.4-5.6-5.8
			c-2.4-1.3-5.1-2-8.1-2c-3.1,0-5.8,0.7-8.1,2c-2.4,1.3-4.3,3.3-5.7,5.8s-2.1,5.5-2.1,9c0,3.4,0.7,6.4,2.1,8.9
			c1.4,2.5,3.3,4.5,5.7,5.8C622,181,624.7,181.6,627.7,181.6z"/>
		<path class="st3" d="M692.2,192.3c-5.5,0-10.3-1.2-14.6-3.6c-4.3-2.4-7.6-5.6-10.1-9.8c-2.5-4.1-3.7-8.8-3.7-14.1
			c0-5.3,1.2-10.1,3.7-14.2c2.5-4.1,5.8-7.3,10.1-9.6c4.3-2.3,9.1-3.5,14.6-3.5c5.5,0,10.5,1.2,14.8,3.5c4.3,2.3,7.7,5.5,10.1,9.6
			c2.4,4.1,3.7,8.8,3.7,14.2c0,5.3-1.2,10-3.7,14.1c-2.4,4.1-5.8,7.4-10.1,9.8C702.7,191.1,697.7,192.3,692.2,192.3z M692.2,181.6
			c3.1,0,5.8-0.7,8.2-2c2.4-1.3,4.3-3.3,5.6-5.8c1.4-2.5,2-5.5,2-8.9c0-3.5-0.7-6.5-2-9c-1.4-2.5-3.3-4.4-5.6-5.8
			c-2.4-1.3-5.1-2-8.1-2c-3.1,0-5.8,0.7-8.1,2c-2.4,1.3-4.3,3.3-5.7,5.8s-2.1,5.5-2.1,9c0,3.4,0.7,6.4,2.1,8.9
			c1.4,2.5,3.3,4.5,5.7,5.8C686.5,181,689.2,181.6,692.2,181.6z"/>
		<path class="st3" d="M755.3,192.3c-5.1,0-9.8-1.2-13.8-3.5c-4.1-2.3-7.3-5.5-9.7-9.5c-2.3-4.1-3.5-8.9-3.5-14.4
			c0-5.5,1.2-10.3,3.5-14.4c2.3-4.1,5.5-7.2,9.7-9.5c4.1-2.3,8.7-3.4,13.8-3.4c4.5,0,8.5,1,12,3c3.5,2,6.3,4.9,8.4,8.9
			c2.1,4,3.1,9.1,3.1,15.4c0,6.2-1,11.3-3,15.3c-2,4-4.8,7.1-8.3,9.1C764,191.3,759.9,192.3,755.3,192.3z M756.8,181.6
			c3,0,5.7-0.7,8-2c2.4-1.3,4.3-3.3,5.7-5.8c1.4-2.5,2.2-5.5,2.2-8.9c0-3.5-0.7-6.5-2.2-9c-1.4-2.5-3.3-4.4-5.7-5.8
			c-2.4-1.3-5-2-8-2s-5.7,0.7-8,2c-2.4,1.3-4.3,3.3-5.7,5.8c-1.4,2.5-2.1,5.5-2.1,9c0,3.4,0.7,6.4,2.1,8.9c1.4,2.5,3.3,4.5,5.7,5.8
			C751.1,181,753.8,181.6,756.8,181.6z M773,191.6V179l0.5-14.2l-1-14.2v-33.2h12.4v74.2H773z"/>
	</g>
</g>
</svg>
